<svg xmlns="http://www.w3.org/2000/svg" xmlns:xlink="http://www.w3.org/1999/xlink" width="96" zoomAndPan="magnify" viewBox="0 0 72 72" height="96" preserveAspectRatio="xMidYMid meet" version="1.0"><defs><g/><clipPath id="8b3bf57738"><path d="M 36 0 C 16.117188 0 0 16.117188 0 36 C 0 55.882812 16.117188 72 36 72 C 55.882812 72 72 55.882812 72 36 C 72 16.117188 55.882812 0 36 0 Z M 36 0 " clip-rule="nonzero"/></clipPath><clipPath id="e5556e5f81"><path d="M 2.683594 4.351562 L 69.378906 4.351562 L 69.378906 67.644531 L 2.683594 67.644531 Z M 2.683594 4.351562 " clip-rule="nonzero"/></clipPath></defs><g clip-path="url(#8b3bf57738)"><rect x="-7.2" width="86.4" fill="#000000" y="-7.2" height="86.4" fill-opacity="1"/></g><g clip-path="url(#e5556e5f81)"><path fill="#d6a553" d="M 18.5625 8.28125 C 19.023438 8.28125 19.40625 8.660156 19.40625 9.125 C 19.40625 9.59375 19.023438 9.972656 18.5625 9.972656 C 18.09375 9.972656 17.710938 9.59375 17.710938 9.125 C 17.710938 8.660156 18.09375 8.28125 18.5625 8.28125 Z M 3.535156 40.070312 C 4.003906 40.070312 4.386719 40.449219 4.386719 40.917969 C 4.386719 41.382812 4.003906 41.761719 3.535156 41.761719 C 3.066406 41.761719 2.691406 41.382812 2.691406 40.917969 C 2.691406 40.449219 3.066406 40.070312 3.535156 40.070312 Z M 60.523438 16.070312 C 60.992188 16.070312 61.371094 16.449219 61.371094 16.914062 C 61.371094 17.378906 60.992188 17.757812 60.523438 17.757812 C 60.058594 17.757812 59.675781 17.378906 59.675781 16.914062 C 59.675781 16.449219 60.058594 16.070312 60.523438 16.070312 Z M 46.273438 5.558594 C 46.742188 5.558594 47.121094 5.9375 47.121094 6.40625 C 47.121094 6.871094 46.742188 7.25 46.273438 7.25 C 45.808594 7.25 45.429688 6.871094 45.429688 6.40625 C 45.429688 5.9375 45.808594 5.558594 46.273438 5.558594 Z M 68.792969 38.683594 C 69.09375 38.683594 69.335938 38.914062 69.335938 39.199219 C 69.335938 39.484375 69.09375 39.714844 68.792969 39.714844 C 68.492188 39.714844 68.253906 39.484375 68.253906 39.199219 C 68.253906 38.914062 68.492188 38.683594 68.792969 38.683594 Z M 62.257812 18.539062 C 62.554688 18.539062 62.796875 18.769531 62.796875 19.054688 C 62.796875 19.339844 62.554688 19.574219 62.257812 19.574219 C 61.957031 19.574219 61.710938 19.339844 61.710938 19.054688 C 61.710938 18.769531 61.957031 18.539062 62.257812 18.539062 Z M 21.011719 7.683594 C 21.3125 7.683594 21.558594 7.914062 21.558594 8.199219 C 21.558594 8.484375 21.3125 8.71875 21.011719 8.71875 C 20.714844 8.71875 20.472656 8.484375 20.472656 8.199219 C 20.472656 7.914062 20.714844 7.683594 21.011719 7.683594 Z M 16.109375 8.480469 C 16.410156 8.480469 16.65625 8.710938 16.65625 8.996094 C 16.65625 9.28125 16.410156 9.515625 16.109375 9.515625 C 15.8125 9.515625 15.570312 9.28125 15.570312 8.996094 C 15.570312 8.710938 15.8125 8.480469 16.109375 8.480469 Z M 4.394531 31.859375 C 4.695312 31.859375 4.941406 32.089844 4.941406 32.375 C 4.941406 32.660156 4.695312 32.890625 4.394531 32.890625 C 4.097656 32.890625 3.855469 32.660156 3.855469 32.375 C 3.855469 32.089844 4.097656 31.859375 4.394531 31.859375 Z M 9.941406 55.308594 C 10.238281 55.308594 10.484375 55.539062 10.484375 55.824219 C 10.484375 56.109375 10.238281 56.339844 9.941406 56.339844 C 9.640625 56.339844 9.402344 56.109375 9.402344 55.824219 C 9.402344 55.539062 9.640625 55.308594 9.941406 55.308594 Z M 27.25 66.578125 C 27.546875 66.578125 27.792969 66.8125 27.792969 67.09375 C 27.792969 67.378906 27.546875 67.613281 27.25 67.613281 C 26.949219 67.613281 26.710938 67.378906 26.710938 67.09375 C 26.710938 66.8125 26.949219 66.578125 27.25 66.578125 Z M 50.128906 65.203125 C 50.429688 65.203125 50.667969 65.433594 50.667969 65.71875 C 50.667969 66.003906 50.429688 66.238281 50.128906 66.238281 C 49.828125 66.238281 49.582031 66.003906 49.582031 65.71875 C 49.582031 65.433594 49.828125 65.203125 50.128906 65.203125 Z M 62.027344 56.144531 C 62.328125 56.144531 62.574219 56.375 62.574219 56.660156 C 62.574219 56.945312 62.328125 57.175781 62.027344 57.175781 C 61.730469 57.175781 61.488281 56.945312 61.488281 56.660156 C 61.488281 56.375 61.730469 56.144531 62.027344 56.144531 Z M 60.738281 57.648438 C 61.035156 57.648438 61.28125 57.878906 61.28125 58.164062 C 61.28125 58.449219 61.035156 58.679688 60.738281 58.679688 C 60.445312 58.679688 60.199219 58.449219 60.199219 58.164062 C 60.199219 57.878906 60.445312 57.648438 60.738281 57.648438 Z M 59.375 59.132812 C 59.675781 59.132812 59.914062 59.363281 59.914062 59.648438 C 59.914062 59.933594 59.675781 60.164062 59.375 60.164062 C 59.078125 60.164062 58.832031 59.933594 58.832031 59.648438 C 58.832031 59.363281 59.078125 59.132812 59.375 59.132812 Z M 61.019531 59.339844 C 61.320312 59.339844 61.566406 59.570312 61.566406 59.855469 C 61.566406 60.140625 61.320312 60.371094 61.019531 60.371094 C 60.722656 60.371094 60.480469 60.140625 60.480469 59.855469 C 60.480469 59.570312 60.722656 59.339844 61.019531 59.339844 Z M 51.886719 64.542969 C 52.1875 64.542969 52.425781 64.773438 52.425781 65.058594 C 52.425781 65.34375 52.1875 65.574219 51.886719 65.574219 C 51.585938 65.574219 51.347656 65.34375 51.347656 65.058594 C 51.347656 64.773438 51.585938 64.542969 51.886719 64.542969 Z M 52.972656 63.609375 C 53.132812 63.609375 53.261719 63.730469 53.261719 63.875 C 53.261719 64.019531 53.132812 64.136719 52.972656 64.136719 C 52.8125 64.136719 52.6875 64.019531 52.6875 63.875 C 52.6875 63.730469 52.8125 63.609375 52.972656 63.609375 Z M 53.128906 64.714844 C 53.285156 64.714844 53.414062 64.832031 53.414062 64.976562 C 53.414062 65.121094 53.285156 65.238281 53.128906 65.238281 C 52.964844 65.238281 52.839844 65.121094 52.839844 64.976562 C 52.839844 64.832031 52.964844 64.714844 53.128906 64.714844 Z M 58.253906 59.964844 C 58.410156 59.964844 58.539062 60.082031 58.539062 60.226562 C 58.539062 60.371094 58.410156 60.488281 58.253906 60.488281 C 58.089844 60.488281 57.964844 60.371094 57.964844 60.226562 C 57.964844 60.082031 58.089844 59.964844 58.253906 59.964844 Z M 31.121094 5.3125 C 31.277344 5.3125 31.410156 5.429688 31.410156 5.574219 C 31.410156 5.71875 31.277344 5.835938 31.121094 5.835938 C 30.964844 5.835938 30.832031 5.71875 30.832031 5.574219 C 30.832031 5.429688 30.964844 5.3125 31.121094 5.3125 Z M 8.683594 19.894531 C 8.839844 19.894531 8.964844 20.011719 8.964844 20.15625 C 8.964844 20.300781 8.839844 20.417969 8.683594 20.417969 C 8.519531 20.417969 8.394531 20.300781 8.394531 20.15625 C 8.394531 20.011719 8.519531 19.894531 8.683594 19.894531 Z M 28.175781 5.96875 C 28.332031 5.96875 28.464844 6.085938 28.464844 6.230469 C 28.464844 6.375 28.332031 6.496094 28.175781 6.496094 C 28.011719 6.496094 27.886719 6.375 27.886719 6.230469 C 27.886719 6.085938 28.011719 5.96875 28.175781 5.96875 Z M 31.632812 4.359375 C 31.789062 4.359375 31.921875 4.476562 31.921875 4.621094 C 31.921875 4.765625 31.789062 4.882812 31.632812 4.882812 C 31.476562 4.882812 31.34375 4.765625 31.34375 4.621094 C 31.34375 4.476562 31.476562 4.359375 31.632812 4.359375 Z M 3.722656 38.46875 C 3.878906 38.46875 4.007812 38.589844 4.007812 38.734375 C 4.007812 38.878906 3.878906 38.996094 3.722656 38.996094 C 3.5625 38.996094 3.433594 38.878906 3.433594 38.734375 C 3.433594 38.589844 3.5625 38.46875 3.722656 38.46875 Z M 9.359375 53.855469 C 9.515625 53.855469 9.644531 53.972656 9.644531 54.117188 C 9.644531 54.261719 9.515625 54.382812 9.359375 54.382812 C 9.195312 54.382812 9.070312 54.261719 9.070312 54.117188 C 9.070312 53.972656 9.195312 53.855469 9.359375 53.855469 Z M 10.933594 57.246094 C 11.09375 57.246094 11.21875 57.363281 11.21875 57.511719 C 11.21875 57.65625 11.09375 57.773438 10.933594 57.773438 C 10.773438 57.773438 10.644531 57.65625 10.644531 57.511719 C 10.644531 57.363281 10.773438 57.246094 10.933594 57.246094 Z M 67.9375 40.828125 C 68.09375 40.828125 68.226562 40.945312 68.226562 41.089844 C 68.226562 41.234375 68.09375 41.351562 67.9375 41.351562 C 67.78125 41.351562 67.648438 41.234375 67.648438 41.089844 C 67.648438 40.945312 67.78125 40.828125 67.9375 40.828125 Z M 66.84375 28.949219 C 67 28.949219 67.125 29.066406 67.125 29.210938 C 67.125 29.355469 67 29.472656 66.84375 29.472656 C 66.679688 29.472656 66.554688 29.355469 66.554688 29.210938 C 66.554688 29.066406 66.679688 28.949219 66.84375 28.949219 Z M 63.15625 20.378906 C 63.3125 20.378906 63.445312 20.496094 63.445312 20.640625 C 63.445312 20.785156 63.3125 20.902344 63.15625 20.902344 C 62.996094 20.902344 62.867188 20.785156 62.867188 20.640625 C 62.867188 20.496094 62.996094 20.378906 63.15625 20.378906 Z M 68.410156 36.273438 C 68.710938 36.273438 68.957031 36.507812 68.957031 36.792969 C 68.957031 37.078125 68.710938 37.308594 68.410156 37.308594 C 68.113281 37.308594 67.871094 37.078125 67.871094 36.792969 C 67.871094 36.507812 68.113281 36.273438 68.410156 36.273438 Z M 32.917969 4.71875 C 33.210938 4.71875 33.457031 4.953125 33.457031 5.238281 C 33.457031 5.523438 33.210938 5.753906 32.917969 5.753906 C 32.617188 5.753906 32.375 5.523438 32.375 5.238281 C 32.375 4.953125 32.617188 4.71875 32.917969 4.71875 Z M 5.222656 36.925781 C 5.222656 36.746094 5.222656 36.566406 5.222656 36.390625 C 5.222656 19.824219 18.644531 6.378906 35.179688 6.378906 C 35.394531 6.378906 35.621094 6.382812 35.835938 6.386719 C 36.023438 6.382812 36.203125 6.378906 36.386719 6.378906 C 44.84375 6.378906 52.460938 10.203125 57.71875 16.285156 C 63.625 21.640625 67.316406 29.242188 67.316406 37.667969 C 67.316406 53.867188 53.671875 67.019531 36.871094 67.019531 C 32.488281 67.019531 28.320312 66.125 24.550781 64.515625 C 13.257812 60.355469 5.222656 49.757812 5.222656 37.355469 C 5.222656 37.210938 5.222656 37.070312 5.222656 36.925781 Z M 10.429688 23.480469 C 7.996094 27.679688 6.613281 32.519531 6.613281 37.667969 C 6.613281 37.683594 6.613281 37.699219 6.613281 37.714844 C 6.78125 51.5 16.738281 62.972656 29.921875 65.632812 C 17.164062 62.570312 7.636719 50.632812 7.636719 36.390625 C 7.636719 31.769531 8.640625 27.390625 10.429688 23.480469 Z M 59.675781 19.125 C 59.039062 18.183594 58.347656 17.285156 57.613281 16.433594 C 57.496094 16.328125 57.382812 16.226562 57.269531 16.125 C 58.132812 17.074219 58.941406 18.074219 59.675781 19.125 Z M 32.355469 66.269531 C 33.652344 66.441406 34.976562 66.527344 36.320312 66.527344 C 52.71875 66.527344 66.03125 53.527344 66.03125 37.511719 C 66.03125 32.46875 64.714844 27.722656 62.386719 23.585938 C 63.933594 26.996094 64.882812 30.757812 65.089844 34.722656 C 65.121094 35.273438 65.132812 35.828125 65.132812 36.390625 C 65.132812 36.566406 65.132812 36.746094 65.132812 36.925781 C 65.132812 37.070312 65.132812 37.210938 65.132812 37.355469 C 65.132812 37.902344 65.117188 38.445312 65.089844 38.988281 C 64.589844 47.910156 60.007812 55.765625 53.160156 60.753906 C 48.441406 64.304688 42.644531 66.398438 36.386719 66.398438 C 36.277344 66.398438 36.167969 66.398438 36.0625 66.394531 C 35.96875 66.398438 35.875 66.398438 35.78125 66.398438 C 35.722656 66.398438 35.664062 66.398438 35.601562 66.398438 C 35.460938 66.398438 35.320312 66.398438 35.179688 66.398438 C 34.617188 66.398438 34.0625 66.382812 33.511719 66.355469 C 33.125 66.332031 32.738281 66.304688 32.355469 66.269531 Z M 31.953125 6.734375 C 18.4375 8.199219 7.621094 18.738281 5.707031 32.140625 C 7.046875 24.972656 11.105469 18.71875 16.808594 14.421875 C 20.921875 10.425781 26.148438 7.675781 31.953125 6.734375 Z M 60.300781 20.382812 C 56.378906 15.160156 50.714844 11.265625 44.152344 9.515625 C 54.566406 12.582031 62.566406 21.21875 64.621094 31.925781 C 63.988281 27.730469 62.484375 23.816406 60.300781 20.382812 Z M 54.910156 58.960938 C 56.015625 58.011719 57.050781 56.984375 58 55.886719 C 58.589844 55.171875 59.152344 54.429688 59.675781 53.65625 C 58.304688 55.609375 56.703125 57.390625 54.910156 58.960938 Z M 64.949219 36.835938 C 64.664062 21.425781 51.898438 8.945312 36.042969 8.507812 C 25.707031 8.773438 16.65625 14.050781 11.410156 21.90625 C 9.125 26.195312 7.816406 31.132812 7.816406 36.390625 C 7.816406 52.628906 20.277344 65.859375 35.75 66.210938 C 51.773438 65.90625 64.714844 52.902344 64.949219 36.835938 Z M 57.882812 51.867188 C 58.351562 51.867188 58.734375 52.246094 58.734375 52.710938 C 58.734375 53.179688 58.351562 53.558594 57.882812 53.558594 C 57.421875 53.558594 57.039062 53.179688 57.039062 52.710938 C 57.039062 52.246094 57.421875 51.867188 57.882812 51.867188 Z M 46.140625 12.621094 C 46.300781 12.621094 46.429688 12.738281 46.429688 12.882812 C 46.429688 13.027344 46.300781 13.144531 46.140625 13.144531 C 45.984375 13.144531 45.851562 13.027344 45.851562 12.882812 C 45.851562 12.738281 45.984375 12.621094 46.140625 12.621094 Z M 56.992188 54.277344 C 57.148438 54.277344 57.277344 54.394531 57.277344 54.542969 C 57.277344 54.6875 57.148438 54.804688 56.992188 54.804688 C 56.832031 54.804688 56.703125 54.6875 56.703125 54.542969 C 56.703125 54.394531 56.832031 54.277344 56.992188 54.277344 Z M 16.449219 19.035156 C 16.605469 19.035156 16.738281 19.152344 16.738281 19.296875 C 16.738281 19.441406 16.605469 19.558594 16.449219 19.558594 C 16.289062 19.558594 16.160156 19.441406 16.160156 19.296875 C 16.160156 19.152344 16.289062 19.035156 16.449219 19.035156 Z M 10.304688 27.449219 C 10.773438 27.449219 11.15625 27.828125 11.15625 28.292969 C 11.15625 28.761719 10.773438 29.140625 10.304688 29.140625 C 9.84375 29.140625 9.460938 28.761719 9.460938 28.292969 C 9.460938 27.828125 9.84375 27.449219 10.304688 27.449219 Z M 62.789062 29.695312 C 63.089844 29.695312 63.335938 29.925781 63.335938 30.210938 C 63.335938 30.496094 63.089844 30.730469 62.789062 30.730469 C 62.492188 30.730469 62.25 30.496094 62.25 30.210938 C 62.25 29.925781 62.492188 29.695312 62.789062 29.695312 Z M 62.109375 27.8125 C 62.402344 27.8125 62.648438 28.042969 62.648438 28.328125 C 62.648438 28.613281 62.402344 28.84375 62.109375 28.84375 C 61.808594 28.84375 61.566406 28.613281 61.566406 28.328125 C 61.566406 28.042969 61.808594 27.8125 62.109375 27.8125 Z M 14.707031 53.257812 C 15.003906 53.257812 15.25 53.488281 15.25 53.773438 C 15.25 54.058594 15.003906 54.289062 14.707031 54.289062 C 14.40625 54.289062 14.167969 54.058594 14.167969 53.773438 C 14.167969 53.488281 14.40625 53.257812 14.707031 53.257812 Z M 13.414062 51.660156 C 13.714844 51.660156 13.953125 51.890625 13.953125 52.175781 C 13.953125 52.460938 13.714844 52.691406 13.414062 52.691406 C 13.117188 52.691406 12.875 52.460938 12.875 52.175781 C 12.875 51.890625 13.117188 51.660156 13.414062 51.660156 Z M 9 38.585938 C 9.296875 38.585938 9.542969 38.816406 9.542969 39.101562 C 9.542969 39.386719 9.296875 39.617188 9 39.617188 C 8.699219 39.617188 8.460938 39.386719 8.460938 39.101562 C 8.460938 38.816406 8.699219 38.585938 9 38.585938 Z M 11.226562 29.859375 C 11.382812 29.859375 11.515625 29.976562 11.515625 30.121094 C 11.515625 30.265625 11.382812 30.382812 11.226562 30.382812 C 11.066406 30.382812 10.9375 30.265625 10.9375 30.121094 C 10.9375 29.976562 11.066406 29.859375 11.226562 29.859375 Z M 45.609375 11.160156 C 45.90625 11.160156 46.148438 11.390625 46.148438 11.675781 C 46.148438 11.960938 45.90625 12.195312 45.609375 12.195312 C 45.308594 12.195312 45.0625 11.960938 45.0625 11.675781 C 45.0625 11.390625 45.308594 11.160156 45.609375 11.160156 Z M 59.496094 50.417969 C 59.796875 50.417969 60.035156 50.648438 60.035156 50.933594 C 60.035156 51.21875 59.796875 51.449219 59.496094 51.449219 C 59.195312 51.449219 58.957031 51.21875 58.957031 50.933594 C 58.957031 50.648438 59.195312 50.417969 59.496094 50.417969 Z M 34.910156 9.53125 C 35.070312 9.53125 35.199219 9.648438 35.199219 9.792969 C 35.199219 9.9375 35.070312 10.054688 34.910156 10.054688 C 34.753906 10.054688 34.621094 9.9375 34.621094 9.792969 C 34.621094 9.648438 34.753906 9.53125 34.910156 9.53125 Z M 27.65625 62.050781 C 28.125 62.050781 28.507812 62.429688 28.507812 62.894531 C 28.507812 63.363281 28.125 63.742188 27.65625 63.742188 C 27.1875 63.742188 26.8125 63.363281 26.8125 62.894531 C 26.8125 62.429688 27.1875 62.050781 27.65625 62.050781 Z M 15.207031 19.496094 C 15.5 19.496094 15.746094 19.726562 15.746094 20.011719 C 15.746094 20.296875 15.5 20.53125 15.207031 20.53125 C 14.90625 20.53125 14.664062 20.296875 14.664062 20.011719 C 14.664062 19.726562 14.90625 19.496094 15.207031 19.496094 Z M 9.933594 30.191406 C 10.234375 30.191406 10.480469 30.425781 10.480469 30.710938 C 10.480469 30.996094 10.234375 31.226562 9.933594 31.226562 C 9.636719 31.226562 9.394531 30.996094 9.394531 30.710938 C 9.394531 30.425781 9.636719 30.191406 9.933594 30.191406 Z M 63.761719 36.984375 C 63.917969 36.984375 64.046875 37.101562 64.046875 37.246094 C 64.046875 37.390625 63.917969 37.507812 63.761719 37.507812 C 63.601562 37.507812 63.472656 37.390625 63.472656 37.246094 C 63.472656 37.101562 63.601562 36.984375 63.761719 36.984375 Z M 15.605469 17.996094 C 15.902344 17.996094 16.148438 18.226562 16.148438 18.511719 C 16.148438 18.796875 15.902344 19.027344 15.605469 19.027344 C 15.304688 19.027344 15.066406 18.796875 15.066406 18.511719 C 15.066406 18.226562 15.304688 17.996094 15.605469 17.996094 Z M 29.722656 63.449219 C 30.019531 63.449219 30.261719 63.683594 30.261719 63.96875 C 30.261719 64.253906 30.019531 64.484375 29.722656 64.484375 C 29.421875 64.484375 29.175781 64.253906 29.175781 63.96875 C 29.175781 63.683594 29.421875 63.449219 29.722656 63.449219 Z M 46.941406 11.832031 C 47.101562 11.832031 47.230469 11.949219 47.230469 12.09375 C 47.230469 12.238281 47.101562 12.355469 46.941406 12.355469 C 46.785156 12.355469 46.652344 12.238281 46.652344 12.09375 C 46.652344 11.949219 46.785156 11.832031 46.941406 11.832031 Z M 28.246094 9.285156 C 24.058594 10.253906 20.21875 12.078125 16.921875 14.5625 C 15.8125 15.640625 14.78125 16.8125 13.84375 18.066406 C 17.621094 13.871094 22.597656 10.765625 28.246094 9.285156 Z M 55.960938 15.039062 C 52.746094 12.515625 48.988281 10.617188 44.882812 9.53125 C 50.421875 11.148438 55.292969 14.292969 58.972656 18.464844 C 58.050781 17.246094 57.050781 16.101562 55.960938 15.039062 Z M 56.585938 15.308594 C 52.464844 11 47.089844 8.003906 41.085938 6.964844 C 46.855469 8.121094 52.027344 10.941406 56.085938 14.902344 C 56.253906 15.035156 56.425781 15.171875 56.585938 15.308594 Z M 27.917969 65.539062 C 30.75 66.382812 33.757812 66.839844 36.871094 66.839844 C 53.570312 66.839844 67.132812 53.769531 67.132812 37.667969 C 67.132812 29.824219 63.914062 22.703125 58.683594 17.457031 C 59.730469 18.796875 60.660156 20.226562 61.476562 21.742188 C 64.472656 26.292969 66.210938 31.703125 66.210938 37.511719 C 66.210938 53.625 52.820312 66.707031 36.320312 66.707031 C 33.414062 66.707031 30.597656 66.300781 27.941406 65.542969 C 27.933594 65.542969 27.925781 65.539062 27.917969 65.539062 Z M 6.242188 44.171875 C 7.695312 49.988281 10.96875 55.117188 15.445312 58.960938 C 11.050781 55.105469 7.792969 49.984375 6.242188 44.171875 Z M 54.707031 13.882812 C 49.609375 9.441406 42.992188 6.703125 35.75 6.566406 C 28.992188 6.722656 22.808594 9.332031 17.988281 13.574219 C 22.855469 10.261719 28.785156 8.3125 35.179688 8.3125 C 35.296875 8.3125 35.414062 8.316406 35.53125 8.316406 C 35.613281 8.316406 35.695312 8.316406 35.78125 8.316406 C 35.847656 8.316406 35.917969 8.316406 35.988281 8.316406 C 36.097656 8.316406 36.207031 8.3125 36.320312 8.3125 C 36.394531 8.3125 36.464844 8.3125 36.527344 8.316406 C 36.644531 8.3125 36.757812 8.3125 36.871094 8.3125 C 43.53125 8.3125 49.691406 10.378906 54.707031 13.882812 Z M 15.796875 15.453125 C 9.566406 20.644531 5.566406 28.289062 5.410156 36.835938 C 5.5625 47.132812 10.933594 56.171875 18.988281 61.417969 C 11.378906 56.078125 6.425781 47.425781 6.425781 37.667969 C 6.425781 37.574219 6.425781 37.480469 6.425781 37.386719 C 6.425781 37.335938 6.425781 37.285156 6.425781 37.234375 C 6.460938 30.597656 8.742188 24.484375 12.558594 19.601562 C 13.519531 18.121094 14.601562 16.730469 15.796875 15.453125 Z M 15.796875 15.453125 " fill-opacity="1" fill-rule="evenodd"/></g><g fill="#d6a553" fill-opacity="1"><g transform="translate(19.068395, 38.935435)"><g><path d="M 3.453125 -21.25 C 4.703125 -21.769531 5.90625 -22.03125 7.0625 -22.03125 C 8.03125 -22.03125 9.023438 -21.675781 10.046875 -20.96875 C 10.609375 -20.582031 11.238281 -19.828125 11.9375 -18.703125 C 12.394531 -17.929688 12.984375 -16.53125 13.703125 -14.5 L 17.234375 -4.484375 C 18.046875 -2.242188 18.867188 -0.460938 19.703125 0.859375 C 20.546875 2.179688 21.3125 3.171875 22 3.828125 C 22.695312 4.492188 23.421875 4.960938 24.171875 5.234375 C 24.929688 5.503906 25.554688 5.640625 26.046875 5.640625 C 26.535156 5.640625 26.972656 5.601562 27.359375 5.53125 L 27.390625 5.8125 C 26.460938 6.125 25.554688 6.28125 24.671875 6.28125 C 23.785156 6.28125 22.894531 6.050781 22 5.59375 C 21.113281 5.144531 20.285156 4.515625 19.515625 3.703125 C 17.859375 2.023438 16.453125 -0.53125 15.296875 -3.96875 L 14.15625 -7.265625 L 6.234375 -7.265625 L 4.234375 -2.109375 C 4.128906 -1.878906 4.078125 -1.648438 4.078125 -1.421875 C 4.078125 -1.191406 4.175781 -0.945312 4.375 -0.6875 C 4.582031 -0.425781 4.898438 -0.296875 5.328125 -0.296875 L 5.5625 -0.296875 L 5.5625 0 L -0.265625 0 L -0.265625 -0.296875 L 0 -0.296875 C 0.46875 -0.296875 0.921875 -0.429688 1.359375 -0.703125 C 1.804688 -0.984375 2.175781 -1.40625 2.46875 -1.96875 L 9.640625 -19.171875 C 8.597656 -20.648438 7.304688 -21.390625 5.765625 -21.390625 C 5.066406 -21.390625 4.320312 -21.25 3.53125 -20.96875 Z M 6.546875 -8.140625 L 13.875 -8.140625 L 11.578125 -14.875 C 11.140625 -16.175781 10.738281 -17.191406 10.375 -17.921875 Z M 6.546875 -8.140625 "/></g></g></g><g fill="#d6a553" fill-opacity="1"><g transform="translate(35.745021, 56.281493)"><g><path d="M 11.46875 -12.625 C 11.125 -12.257812 10.726562 -11.988281 10.28125 -11.8125 C 12.175781 -11.539062 13.613281 -10.867188 14.59375 -9.796875 C 15.582031 -8.722656 16.078125 -7.414062 16.078125 -5.875 C 16.078125 -4 15.320312 -2.484375 13.8125 -1.328125 C 12.300781 -0.171875 10.320312 0.40625 7.875 0.40625 C 5.425781 0.40625 3.503906 -0.195312 2.109375 -1.40625 C 0.722656 -2.613281 0.03125 -4.316406 0.03125 -6.515625 C 0.03125 -6.628906 0.03125 -6.742188 0.03125 -6.859375 L 0.34375 -6.921875 C 0.726562 -4.046875 1.925781 -2.179688 3.9375 -1.328125 L 3.9375 -18.1875 C 3.894531 -18.707031 3.695312 -19.132812 3.34375 -19.46875 C 2.988281 -19.8125 2.5625 -19.984375 2.0625 -19.984375 L 1.703125 -19.984375 L 1.703125 -20.265625 L 6.578125 -20.265625 C 8.390625 -20.265625 9.835938 -19.847656 10.921875 -19.015625 C 12.015625 -18.191406 12.5625 -17.109375 12.5625 -15.765625 C 12.5625 -14.421875 12.195312 -13.375 11.46875 -12.625 Z M 5.828125 -19.34375 L 5.828125 -0.8125 C 6.460938 -0.71875 7.191406 -0.671875 8.015625 -0.671875 C 9.867188 -0.671875 11.3125 -1.164062 12.34375 -2.15625 C 13.382812 -3.144531 13.90625 -4.429688 13.90625 -6.015625 C 13.90625 -6.867188 13.742188 -7.625 13.421875 -8.28125 C 13.097656 -8.9375 12.695312 -9.445312 12.21875 -9.8125 C 10.945312 -10.800781 9.148438 -11.296875 6.828125 -11.296875 C 6.816406 -11.296875 6.8125 -11.296875 6.8125 -11.296875 L 6.78125 -11.546875 C 6.800781 -11.546875 6.8125 -11.546875 6.8125 -11.546875 C 7.789062 -11.546875 8.628906 -11.867188 9.328125 -12.515625 C 10.035156 -13.160156 10.390625 -14.160156 10.390625 -15.515625 C 10.390625 -18.066406 8.992188 -19.34375 6.203125 -19.34375 Z M 5.828125 -19.34375 "/></g></g></g><g fill="#d6a553" fill-opacity="1"><g transform="translate(13.786486, 43.807854)"><g><path d="M 0.203125 0 L 0.203125 -2.015625 L 0.875 -2.015625 C 1.125 -2.015625 1.316406 -1.96875 1.453125 -1.875 C 1.597656 -1.78125 1.671875 -1.640625 1.671875 -1.453125 C 1.671875 -1.359375 1.644531 -1.269531 1.59375 -1.1875 C 1.550781 -1.113281 1.484375 -1.054688 1.390625 -1.015625 C 1.484375 -0.984375 1.554688 -0.925781 1.609375 -0.84375 C 1.671875 -0.769531 1.703125 -0.679688 1.703125 -0.578125 C 1.703125 -0.398438 1.632812 -0.257812 1.5 -0.15625 C 1.375 -0.0507812 1.195312 0 0.96875 0 Z M 0.875 -1.703125 L 0.5625 -1.703125 L 0.5625 -1.15625 L 0.875 -1.15625 C 1.019531 -1.15625 1.125 -1.175781 1.1875 -1.21875 C 1.257812 -1.269531 1.296875 -1.34375 1.296875 -1.4375 C 1.296875 -1.53125 1.257812 -1.597656 1.1875 -1.640625 C 1.125 -1.679688 1.019531 -1.703125 0.875 -1.703125 Z M 0.5625 -0.296875 L 0.953125 -0.296875 C 1.066406 -0.296875 1.15625 -0.316406 1.21875 -0.359375 C 1.289062 -0.410156 1.328125 -0.484375 1.328125 -0.578125 C 1.328125 -0.765625 1.203125 -0.859375 0.953125 -0.859375 L 0.5625 -0.859375 Z M 0.5625 -0.296875 "/></g></g></g><g fill="#d6a553" fill-opacity="1"><g transform="translate(17.483858, 43.807854)"><g><path d="M 0.203125 0 L 0.203125 -2.015625 L 0.578125 -2.015625 L 0.578125 -1.171875 L 1.53125 -1.171875 L 1.53125 -2.015625 L 1.890625 -2.015625 L 1.890625 0 L 1.53125 0 L 1.53125 -0.859375 L 0.578125 -0.859375 L 0.578125 0 Z M 0.203125 0 "/></g></g></g><g fill="#d6a553" fill-opacity="1"><g transform="translate(21.49015, 43.807854)"><g><path d="M -0.03125 0 L 0.828125 -2.015625 L 1.140625 -2.015625 L 1.96875 0 L 1.59375 0 L 1.40625 -0.453125 L 0.53125 -0.453125 L 0.34375 0 Z M 0.65625 -0.765625 L 1.296875 -0.765625 L 0.984375 -1.5625 Z M 0.65625 -0.765625 "/></g></g></g><g fill="#d6a553" fill-opacity="1"><g transform="translate(25.343398, 43.807854)"><g><path d="M 1.796875 -0.34375 L 1.875 -0.0625 C 1.84375 -0.03125 1.796875 -0.0078125 1.734375 0 C 1.679688 0.0195312 1.625 0.03125 1.5625 0.03125 C 1.351562 0.03125 1.1875 -0.0625 1.0625 -0.25 L 0.78125 -0.703125 C 0.75 -0.742188 0.71875 -0.773438 0.6875 -0.796875 C 0.65625 -0.816406 0.617188 -0.828125 0.578125 -0.828125 L 0.5625 -0.828125 L 0.5625 0 L 0.203125 0 L 0.203125 -2.015625 L 0.828125 -2.015625 C 1.085938 -2.015625 1.28125 -1.957031 1.40625 -1.84375 C 1.539062 -1.738281 1.609375 -1.59375 1.609375 -1.40625 C 1.609375 -1.300781 1.582031 -1.207031 1.53125 -1.125 C 1.476562 -1.039062 1.410156 -0.972656 1.328125 -0.921875 C 1.242188 -0.878906 1.148438 -0.851562 1.046875 -0.84375 C 1.097656 -0.8125 1.148438 -0.757812 1.203125 -0.6875 L 1.359375 -0.453125 C 1.398438 -0.398438 1.4375 -0.359375 1.46875 -0.328125 C 1.507812 -0.304688 1.554688 -0.296875 1.609375 -0.296875 C 1.679688 -0.296875 1.742188 -0.3125 1.796875 -0.34375 Z M 0.8125 -1.703125 L 0.5625 -1.703125 L 0.5625 -1.109375 L 0.78125 -1.109375 C 0.9375 -1.109375 1.050781 -1.132812 1.125 -1.1875 C 1.195312 -1.238281 1.234375 -1.3125 1.234375 -1.40625 C 1.234375 -1.601562 1.09375 -1.703125 0.8125 -1.703125 Z M 0.8125 -1.703125 "/></g></g></g><g fill="#d6a553" fill-opacity="1"><g transform="translate(29.023764, 43.807854)"><g><path d="M 1.65625 -2.015625 L 1.625 -1.6875 L 1 -1.6875 L 1 0 L 0.625 0 L 0.625 -1.6875 L -0.015625 -1.6875 L -0.015625 -2.015625 Z M 1.65625 -2.015625 "/></g></g></g><g fill="#d6a553" fill-opacity="1"><g transform="translate(32.55392, 43.807854)"><g><path d="M 0.203125 0 L 0.203125 -2.015625 L 0.578125 -2.015625 L 0.578125 0 Z M 0.203125 0 "/></g></g></g><g fill="#d6a553" fill-opacity="1"><g transform="translate(35.999999, 27.026814)"><g><path d="M -0.03125 0 L 0.828125 -2.015625 L 1.140625 -2.015625 L 1.96875 0 L 1.59375 0 L 1.40625 -0.453125 L 0.53125 -0.453125 L 0.34375 0 Z M 0.65625 -0.765625 L 1.296875 -0.765625 L 0.984375 -1.5625 Z M 0.65625 -0.765625 "/></g></g></g><g fill="#d6a553" fill-opacity="1"><g transform="translate(39.853247, 27.026814)"><g><path d="M 0.828125 0.03125 C 0.597656 0.03125 0.414062 -0.0195312 0.28125 -0.125 C 0.144531 -0.238281 0.0664062 -0.394531 0.046875 -0.59375 L 0.40625 -0.640625 C 0.4375 -0.398438 0.582031 -0.28125 0.84375 -0.28125 C 0.957031 -0.28125 1.046875 -0.300781 1.109375 -0.34375 C 1.179688 -0.394531 1.21875 -0.460938 1.21875 -0.546875 C 1.21875 -0.617188 1.179688 -0.675781 1.109375 -0.71875 C 1.046875 -0.757812 0.945312 -0.796875 0.8125 -0.828125 C 0.675781 -0.859375 0.5625 -0.894531 0.46875 -0.9375 C 0.375 -0.988281 0.300781 -1.050781 0.25 -1.125 C 0.195312 -1.195312 0.171875 -1.296875 0.171875 -1.421875 C 0.171875 -1.535156 0.203125 -1.640625 0.265625 -1.734375 C 0.328125 -1.828125 0.410156 -1.898438 0.515625 -1.953125 C 0.628906 -2.003906 0.753906 -2.03125 0.890625 -2.03125 C 1.078125 -2.03125 1.226562 -1.976562 1.34375 -1.875 C 1.46875 -1.78125 1.539062 -1.648438 1.5625 -1.484375 L 1.234375 -1.4375 C 1.203125 -1.625 1.082031 -1.71875 0.875 -1.71875 C 0.78125 -1.71875 0.703125 -1.691406 0.640625 -1.640625 C 0.578125 -1.597656 0.546875 -1.535156 0.546875 -1.453125 C 0.546875 -1.367188 0.578125 -1.300781 0.640625 -1.25 C 0.703125 -1.207031 0.804688 -1.171875 0.953125 -1.140625 C 1.078125 -1.109375 1.1875 -1.070312 1.28125 -1.03125 C 1.375 -0.988281 1.445312 -0.929688 1.5 -0.859375 C 1.550781 -0.796875 1.578125 -0.703125 1.578125 -0.578125 C 1.578125 -0.453125 1.546875 -0.34375 1.484375 -0.25 C 1.421875 -0.164062 1.332031 -0.0976562 1.21875 -0.046875 C 1.113281 0.00390625 0.984375 0.03125 0.828125 0.03125 Z M 0.828125 0.03125 "/></g></g></g><g fill="#d6a553" fill-opacity="1"><g transform="translate(43.417411, 27.026814)"><g><path d="M 0.203125 0 L 0.203125 -2.015625 L 0.578125 -2.015625 L 0.578125 -1.171875 L 1.53125 -1.171875 L 1.53125 -2.015625 L 1.890625 -2.015625 L 1.890625 0 L 1.53125 0 L 1.53125 -0.859375 L 0.578125 -0.859375 L 0.578125 0 Z M 0.203125 0 "/></g></g></g><g fill="#d6a553" fill-opacity="1"><g transform="translate(47.423703, 27.026814)"><g><path d="M -0.03125 0 L 0.828125 -2.015625 L 1.140625 -2.015625 L 1.96875 0 L 1.59375 0 L 1.40625 -0.453125 L 0.53125 -0.453125 L 0.34375 0 Z M 0.65625 -0.765625 L 1.296875 -0.765625 L 0.984375 -1.5625 Z M 0.65625 -0.765625 "/></g></g></g></svg>